<?xml version="1.0" encoding="UTF-8"?>
<svg xmlns="http://www.w3.org/2000/svg" id="Layer_1" data-name="Layer 1" viewBox="0 0 24 24">
  <path d="m23.682,5.966c-.06.023-.121.034-.182.034-.2,0-.389-.121-.466-.318l-1.554-3.983C17.941,10.047,10.93,15.531.616,17.986c-.039.01-.078.014-.116.014-.226,0-.431-.154-.486-.384-.064-.269.102-.539.371-.603,10.052-2.393,16.857-7.732,20.244-15.862l-4.193,1.636c-.255.101-.547-.027-.647-.284s.027-.547.284-.647L20.472.139c.341-.133.713-.127,1.049.021s.595.417.728.759l1.717,4.4c.101.257-.027.547-.284.647Zm-2.182,2.034c-.276,0-.5.224-.5.5v15c0,.276.224.5.5.5s.5-.224.5-.5v-15c0-.276-.224-.5-.5-.5Zm-5,5c-.276,0-.5.224-.5.5v10c0,.276.224.5.5.5s.5-.224.5-.5v-10c0-.276-.224-.5-.5-.5Zm-10,5c-.276,0-.5.224-.5.5v5c0,.276.224.5.5.5s.5-.224.5-.5v-5c0-.276-.224-.5-.5-.5Zm-5,2c-.276,0-.5.224-.5.5v3c0,.276.224.5.5.5s.5-.224.5-.5v-3c0-.276-.224-.5-.5-.5Zm10-4c-.276,0-.5.224-.5.5v7c0,.276.224.5.5.5s.5-.224.5-.5v-7c0-.276-.224-.5-.5-.5ZM0,6C0,2.691,2.691,0,6,0s6,2.691,6,6-2.691,6-6,6S0,9.309,0,6Zm6,5c.717,0,1.396-.158,2.014-.431-.003-.023-.014-.044-.014-.069v-.5c0-1.103-.897-2-2-2s-2,.897-2,2v.5c0,.024-.01.045-.014.069.617.273,1.296.431,2.014.431ZM1,6c0,1.628.794,3.063,2.002,3.976.013-1.643,1.351-2.976,2.998-2.976s2.985,1.333,2.998,2.976c1.208-.914,2.002-2.348,2.002-3.976,0-2.757-2.243-5-5-5S1,3.243,1,6Zm3-2c0-1.103.897-2,2-2s2,.897,2,2-.897,2-2,2-2-.897-2-2Zm1,0c0,.552.449,1,1,1s1-.448,1-1-.449-1-1-1-1,.448-1,1Z"/>
</svg>
