<?xml version="1.0" encoding="UTF-8"?>
<svg xmlns="http://www.w3.org/2000/svg" id="Layer_1" data-name="Layer 1" viewBox="0 0 24 24">
  <path d="m16,15c0,1.654,1.346,3,3,3s3-1.346,3-3-1.346-3-3-3-3,1.346-3,3Zm5,0c0,1.103-.897,2-2,2s-2-.897-2-2,.897-2,2-2,2,.897,2,2Zm2.997,8.444c.031.274-.166.522-.44.553-.02.002-.038.003-.058.003-.251,0-.467-.188-.496-.444-.229-2.027-1.951-3.556-4.003-3.556s-3.773,1.529-4.003,3.556c-.031.275-.287.474-.554.44-.274-.031-.472-.278-.44-.553.288-2.534,2.436-4.444,4.997-4.444s4.709,1.91,4.997,4.444ZM2,11.649v7.851c0,1.93,1.57,3.5,3.5,3.5h6c.276,0,.5.224.5.5s-.224.5-.5.5h-6c-2.481,0-4.5-2.019-4.5-4.5v-8.5c0-.017.008-.031.009-.047-.623-.632-1.009-1.498-1.009-2.453C0,8.449,2.523.351,2.523.351c.065-.209.258-.351.477-.351h18c.219,0,.412.142.478.351,0,0,2.522,8.098,2.522,8.149,0,.995-.425,1.945-1.167,2.608-.204.183-.522.167-.706-.039s-.166-.522.04-.706c.511-.458.812-1.106.832-1.791l-2.366-7.573h-3.633v3.5c0,.276-.224.5-.5.5s-.5-.224-.5-.5V1h-8v3.5c0,.276-.224.5-.5.5s-.5-.224-.5-.5V1h-3.632l-2.367,7.573c.039,1.345,1.145,2.427,2.499,2.427h1c1.378,0,2.5-1.122,2.5-2.5,0-.276.224-.5.5-.5s.5.224.5.5c0,1.378,1.122,2.5,2.5,2.5h3c1.379,0,2.5-1.122,2.5-2.5,0-.276.224-.5.5-.5s.5.224.5.5c0,1.93-1.57,3.5-3.5,3.5h-3c-1.28,0-2.39-.698-3-1.726-.61,1.028-1.72,1.726-3,1.726h-1c-.539,0-1.044-.133-1.5-.351Z"/>
</svg>
