<?xml version="1.0" encoding="UTF-8"?>
<svg xmlns="http://www.w3.org/2000/svg" id="Layer_1" data-name="Layer 1" viewBox="0 0 24 24">
  <path d="m23.109,15.134l-8.812-3.999c-.91-.308-1.898-.079-2.575.598-.693.692-.903,1.69-.544,2.712l3.944,8.675c.238.523.763.868,1.347.879h.019c.571,0,1.085-.317,1.342-.829l1.776-3.553,3.554-1.776c.514-.258.839-.795.829-1.369-.01-.575-.355-1.101-.879-1.338Zm-.397,1.812l-3.851,1.925-1.925,3.851c-.086.171-.245.278-.436.278-.191-.003-.388-.119-.467-.294l-3.927-8.633c-.215-.617-.098-1.212.324-1.633.28-.281.65-.433,1.048-.433.177,0,.36.03.542.093l8.675,3.944c.174.079.289.254.292.445s-.105.371-.276.457ZM12,0c-.005,0-.01,0-.016,0,0,0,0,0-.001,0C5.374.009,0,5.389,0,12s5.383,12,12,12c.174,0,.348-.004.521-.011.276-.012.49-.245.479-.521-.012-.275-.25-.496-.52-.479-.092.004-.185.007-.277.008-.568-.57-2.737-2.87-4.089-5.998h1.387c.276,0,.5-.224.5-.5s-.224-.5-.5-.5h-1.778c-.437-1.245-.722-2.594-.722-4s.285-2.755.723-4h8.557c.182.518.338,1.055.457,1.605.051.234.258.395.488.395.035,0,.07-.003.106-.011.27-.058.441-.324.383-.594-.103-.477-.231-.942-.377-1.395h4.91c.486,1.24.753,2.59.753,4,0,.16-.003.319-.01.478-.012.276.202.509.478.521.282.026.51-.201.521-.478.008-.173.011-.347.011-.522C24,5.383,18.617,0,12,0ZM1,12c0-1.41.267-2.76.753-4h4.905c-.402,1.246-.658,2.591-.658,4s.256,2.754.658,4H1.753c-.486-1.24-.753-2.59-.753-4Zm6.019,5c1.066,2.669,2.723,4.785,3.743,5.93-3.737-.42-6.914-2.72-8.559-5.93h4.816Zm0-10H2.203C3.848,3.79,7.025,1.49,10.763,1.07c-1.02,1.145-2.677,3.261-3.743,5.93Zm1.096,0c1.224-2.829,3.117-4.984,3.885-5.79.77.807,2.665,2.963,3.888,5.79h-7.773Zm8.86,0c-1.068-2.672-2.722-4.786-3.74-5.93,3.738.42,6.915,2.72,8.561,5.93h-4.821Z"/>
</svg>
