<?xml version="1.0" encoding="UTF-8"?>
<svg xmlns="http://www.w3.org/2000/svg" id="Layer_1" data-name="Layer 1" viewBox="0 0 24 24">
  <path d="m14.146,13.147l-3.137,3.154-3.293-3.293,3.139-3.156c.194-.195.194-.513-.002-.707-.195-.193-.512-.195-.707.002l-3.137,3.154-1.655-1.655c-.195-.195-.512-.195-.707,0s-.195.512,0,.707l.542.542-1.75,1.75c-1.787,1.787-1.899,4.624-.336,6.544L.146,23.146c-.195.195-.195.512,0,.707.098.098.226.146.354.146s.256-.049.354-.146l2.956-2.956c.895.729,1.991,1.094,3.087,1.094,1.252,0,2.504-.477,3.457-1.43l1.75-1.75.542.542c.098.098.226.146.354.146s.256-.049.354-.146c.195-.195.195-.512,0-.707l-1.638-1.638,3.139-3.156c.194-.195.194-.513-.002-.707s-.513-.194-.707.002Zm-4.499,6.707c-1.516,1.516-3.983,1.516-5.501,0-1.516-1.517-1.517-3.984,0-5.501l1.75-1.75,5.501,5.501-1.75,1.75ZM23.854.146c-.195-.195-.512-.195-.707,0l-2.954,2.954c-1.918-1.56-4.754-1.447-6.538.337l-1.758,1.752-.543-.543c-.195-.195-.512-.195-.707,0s-.195.512,0,.707l8,8c.098.098.226.146.354.146s.256-.049.354-.146c.195-.195.195-.512,0-.707l-.542-.542,1.756-1.751c.924-.923,1.433-2.151,1.433-3.457,0-1.14-.387-2.22-1.1-3.09l2.953-2.953c.195-.195.195-.512,0-.707Zm-3.993,9.499l-1.756,1.751-5.5-5.5,1.757-1.751c1.516-1.516,3.984-1.516,5.5,0,.735.735,1.14,1.712,1.14,2.751s-.404,2.016-1.14,2.749Z"/>
</svg>
